<svg xmlns="http://www.w3.org/2000/svg" height="710pt" version="1.1" viewBox="-60 0 710 710.22568" width="710pt">
<g id="surface1">
<path d="M 83.230469 696.867188 L 83.230469 599.953125 C 83.230469 563.292969 112.285156 559.003906 113.519531 558.875 C 115.121094 558.621094 116.300781 557.242188 116.316406 555.625 L 116.316406 449.21875 L 120.476562 447.59375 C 131.265625 443.433594 142.835938 439.339844 154.792969 435.4375 L 163.308594 432.644531 L 163.308594 559.132812 C 163.308594 560.925781 164.765625 562.382812 166.558594 562.382812 L 423.632812 562.382812 C 425.425781 562.382812 426.882812 560.925781 426.882812 559.132812 L 426.882812 432.96875 L 473.8125 449.414062 L 473.8125 555.625 C 473.832031 557.269531 475.046875 558.644531 476.671875 558.875 C 477.90625 558.875 506.898438 563.359375 506.898438 599.953125 L 506.898438 696.867188 C 506.898438 696.867188 83.230469 696.867188 83.230469 696.867188 Z M 470.5625 598.785156 L 470.5625 593.972656 L 430.132812 593.972656 L 430.132812 598.71875 Z M 160.058594 598.785156 L 160.058594 593.972656 L 119.566406 593.972656 L 119.566406 598.71875 Z M 160.058594 598.785156 " style=" stroke:none;fill-rule:nonzero;fill:rgb(5.098039%,37.254902%,50.980392%);fill-opacity:1;" />
<path d="M 475.828125 565.308594 C 470.972656 564.660156 467.332031 560.523438 467.3125 555.625 L 467.3125 454.03125 L 433.382812 442.132812 L 433.382812 559.132812 C 433.382812 564.515625 429.015625 568.882812 423.632812 568.882812 L 166.558594 568.882812 C 161.179688 568.882812 156.808594 564.515625 156.808594 559.132812 L 156.808594 441.679688 C 145.433594 445.382812 133.800781 449.480469 122.816406 453.703125 L 122.816406 555.625 C 122.796875 560.503906 119.195312 564.632812 114.363281 565.308594 C 111.894531 565.632812 89.730469 569.921875 89.730469 599.953125 L 89.730469 690.367188 L 500.394531 690.367188 L 500.394531 599.953125 C 500.398438 568.949219 476.671875 565.4375 475.828125 565.308594 Z M 166.558594 605.285156 L 113.066406 605.285156 L 113.066406 587.472656 L 166.558594 587.472656 Z M 477.0625 605.285156 L 423.632812 605.285156 L 423.632812 587.472656 L 477.0625 587.472656 Z M 477.0625 605.285156 " style=" stroke:none;fill-rule:nonzero;fill:rgb(5.098039%,37.254902%,50.980392%);fill-opacity:1;" />
<path d="M 226.945312 411 L 226.945312 383.246094 L 236.175781 387.535156 C 250.164062 394.042969 265.40625 397.414062 280.828125 397.414062 L 309.363281 397.414062 C 324.484375 397.414062 339.425781 394.15625 353.175781 387.859375 L 362.339844 383.699219 L 362.339844 411 L 295.128906 497.058594 Z M 226.945312 411 " style=" stroke:none;fill-rule:nonzero;fill:rgb(90.196078%,66.27451%,39.215686%);fill-opacity:1;" />
<path d="M 355.839844 393.773438 L 355.839844 408.726562 L 295.0625 486.722656 L 233.445312 408.726562 L 233.445312 393.386719 C 248.289062 400.273438 264.460938 403.851562 280.828125 403.851562 L 309.363281 403.851562 C 325.398438 403.851562 341.246094 400.410156 355.839844 393.773438 Z M 355.839844 393.773438 " style=" stroke:none;fill-rule:nonzero;fill:rgb(90.196078%,66.27451%,39.215686%);fill-opacity:1;" />
<path d="M 169.808594 555.882812 L 169.808594 430.757812 L 174.425781 429.328125 C 193.925781 423.480469 210.175781 418.996094 218.363281 416.851562 L 222.460938 415.746094 L 292.527344 504.339844 C 293.125 505.132812 294.070312 505.585938 295.0625 505.574219 C 296.050781 505.566406 296.988281 505.113281 297.597656 504.339844 L 366.890625 415.808594 L 370.984375 416.914062 C 375.726562 418.148438 393.019531 422.699219 415.769531 429.914062 L 420.382812 431.34375 L 420.382812 555.882812 Z M 169.808594 555.882812 " style=" stroke:none;fill-rule:nonzero;fill:rgb(98.823529%,75.294118%,50.980392%);fill-opacity:1;" />
<path d="M 413.882812 435.828125 L 413.882812 549.382812 L 176.308594 549.382812 L 176.308594 435.570312 C 195.289062 429.785156 211.605469 425.363281 219.988281 423.15625 L 287.460938 508.371094 C 289.285156 510.710938 292.09375 512.082031 295.0625 512.074219 C 298.039062 512.054688 300.847656 510.664062 302.667969 508.304688 L 369.292969 423.15625 C 377.875 425.363281 394.511719 429.914062 413.882812 435.828125 Z M 413.882812 435.828125 " style=" stroke:none;fill-rule:nonzero;fill:rgb(98.823529%,75.294118%,50.980392%);fill-opacity:1;" />
<path d="M 433.316406 262.476562 C 423.953125 262.476562 416.351562 254.878906 416.351562 245.511719 L 416.351562 239.011719 L 419.863281 237.191406 C 428.039062 232.578125 434.34375 225.238281 437.671875 216.457031 L 450.089844 219.1875 L 450.089844 245.1875 C 450.269531 254.554688 442.820312 262.292969 433.453125 262.476562 C 433.410156 262.46875 433.363281 262.476562 433.316406 262.476562 Z M 433.316406 262.476562 " style=" stroke:none;fill-rule:nonzero;fill:rgb(98.823529%,75.294118%,50.980392%);fill-opacity:1;" />
<path d="M 443.78125 219.1875 L 443.78125 245.1875 C 443.78125 250.964844 439.09375 255.652344 433.316406 255.652344 C 427.539062 255.652344 422.851562 250.964844 422.851562 245.1875 L 422.851562 242.519531 C 432.304688 237.378906 439.699219 229.136719 443.78125 219.1875 Z M 443.78125 219.1875 " style=" stroke:none;fill-rule:nonzero;fill:rgb(98.823529%,75.294118%,50.980392%);fill-opacity:1;" />
<path d="M 156.875 262.476562 C 147.496094 262.476562 139.882812 254.890625 139.84375 245.511719 L 139.84375 219.511719 L 152.261719 216.78125 C 155.847656 225.207031 162.199219 232.152344 170.265625 236.476562 L 173.839844 238.296875 L 173.839844 244.796875 C 174.238281 254.15625 166.96875 262.066406 157.605469 262.464844 C 157.363281 262.46875 157.113281 262.476562 156.875 262.476562 Z M 156.875 262.476562 " style=" stroke:none;fill-rule:nonzero;fill:rgb(98.823529%,75.294118%,50.980392%);fill-opacity:1;" />
<path d="M 167.339844 242.519531 L 167.339844 245.1875 C 166.886719 250.984375 161.816406 255.3125 156.015625 254.859375 C 150.855469 254.449219 146.753906 250.351562 146.34375 245.1875 L 146.34375 219.1875 C 150.441406 229.152344 157.855469 237.398438 167.339844 242.519531 Z M 167.339844 242.519531 " style=" stroke:none;fill-rule:nonzero;fill:rgb(98.823529%,75.294118%,50.980392%);fill-opacity:1;" />
<path d="M 280.828125 390.851562 C 225.359375 390.777344 180.410156 345.832031 180.339844 290.363281 L 180.339844 240.179688 L 188.335938 240.765625 L 189.570312 240.765625 C 204.578125 239.777344 219.402344 236.910156 233.703125 232.25 C 253.566406 225.847656 274.210938 222.15625 295.0625 221.265625 C 315.941406 222.148438 336.597656 225.847656 356.488281 232.25 C 370.785156 236.890625 385.613281 239.734375 400.621094 240.703125 L 401.855469 240.703125 L 409.851562 240.117188 L 409.851562 290.296875 C 409.8125 345.792969 364.859375 390.777344 309.363281 390.851562 Z M 280.828125 390.851562 " style=" stroke:none;fill-rule:nonzero;fill:rgb(98.823529%,75.294118%,50.980392%);fill-opacity:1;" />
<path d="M 403.351562 247.203125 L 403.351562 290.359375 C 403.3125 342.253906 361.257812 384.308594 309.363281 384.347656 L 280.828125 384.347656 C 228.933594 384.308594 186.878906 342.253906 186.839844 290.359375 L 186.839844 247.203125 C 187.75 247.203125 188.597656 247.203125 189.570312 247.203125 C 205.039062 246.214844 220.328125 243.289062 235.070312 238.492188 C 254.394531 232.269531 274.460938 228.664062 294.738281 227.765625 C 315.039062 228.664062 335.132812 232.269531 354.476562 238.492188 C 369.21875 243.292969 384.503906 246.21875 399.972656 247.203125 C 401.597656 247.394531 402.441406 247.265625 403.351562 247.203125 Z M 403.351562 247.203125 " style=" stroke:none;fill-rule:nonzero;fill:rgb(98.823529%,75.294118%,50.980392%);fill-opacity:1;" />
<path d="M 401.144531 234.332031 C 386.539062 233.363281 372.113281 230.613281 358.179688 226.140625 C 337.703125 219.652344 316.453125 215.917969 295 215.027344 C 273.5625 215.90625 252.332031 219.640625 231.882812 226.140625 C 217.949219 230.613281 203.523438 233.367188 188.917969 234.332031 C 185.125 234.402344 181.335938 233.921875 177.675781 232.902344 C 166.820312 229.652344 159.214844 220.488281 154.46875 204.886719 L 152.84375 199.621094 L 158.175781 197.476562 C 199.847656 177.90625 245.390625 167.972656 291.425781 168.421875 C 339.621094 168.539062 387.292969 178.425781 431.5625 197.476562 L 437.023438 199.816406 L 435.269531 205.472656 C 430.457031 220.550781 422.917969 229.523438 412.257812 232.707031 C 408.648438 233.785156 404.90625 234.335938 401.144531 234.332031 Z M 401.144531 234.332031 " style=" stroke:none;fill-rule:nonzero;fill:rgb(5.098039%,37.254902%,50.980392%);fill-opacity:1;" />
<path d="M 429.027344 203.976562 C 423.632812 221.003906 416.027344 225.296875 410.308594 226.984375 C 398.671875 229.976562 380.082031 225.359375 359.671875 219.835938 C 338.613281 213.160156 316.753906 209.332031 294.675781 208.460938 C 272.59375 209.320312 250.734375 213.148438 229.675781 219.835938 C 209.523438 225.359375 190.675781 230.039062 179.234375 226.660156 C 173.578125 224.96875 165.78125 220.550781 160.386719 203 C 187.292969 189.9375 293.503906 145.933594 429.027344 203.976562 Z M 429.027344 203.976562 " style=" stroke:none;fill-rule:nonzero;fill:rgb(5.098039%,37.254902%,50.980392%);fill-opacity:1;" />
<path d="M 430.71875 190.195312 C 386.328125 171.300781 338.625 161.402344 290.382812 161.078125 C 245.3125 160.652344 200.703125 170.175781 159.734375 188.960938 L 151.675781 192.863281 L 150.4375 184.023438 C 148.789062 170.851562 148.027344 157.578125 148.164062 144.308594 C 148.164062 51.683594 205.429688 23.214844 253.398438 15.671875 C 267.066406 13.757812 280.867188 12.867188 294.671875 13.007812 C 306.640625 12.957031 318.59375 13.585938 330.488281 14.894531 C 381.316406 21.394531 441.832031 48.757812 441.832031 144.371094 C 441.921875 157.976562 441.121094 171.566406 439.425781 185.0625 L 438.320312 193.449219 Z M 430.71875 190.195312 " style=" stroke:none;fill-rule:nonzero;fill:rgb(18.823529%,58.823529%,87.45098%);fill-opacity:1;" />
<path d="M 435.527344 144.371094 C 435.640625 157.773438 434.851562 171.175781 433.1875 184.476562 C 297.339844 127.992188 191.84375 166.730469 156.875 183.4375 C 155.261719 170.503906 154.527344 157.46875 154.664062 144.4375 C 154.664062 56.429688 208.941406 29.390625 254.4375 22.238281 C 267.761719 20.328125 281.210938 19.414062 294.675781 19.507812 C 306.378906 19.449219 318.074219 20.0625 329.707031 21.328125 C 378.066406 27.308594 435.527344 53.4375 435.527344 144.371094 Z M 435.527344 144.371094 " style=" stroke:none;fill-rule:nonzero;fill:rgb(18.823529%,58.823529%,87.45098%);fill-opacity:1;" />
<path d="M 11.535156 709.867188 L 31.035156 567.453125 C 33.050781 554.972656 43.449219 492.769531 73.675781 470.472656 C 82.085938 464.675781 91.0625 459.738281 100.453125 455.71875 L 109.621094 451.625 L 109.621094 552.632812 L 105.328125 554.195312 C 96.683594 557.378906 76.535156 568.167969 76.535156 599.691406 L 76.535156 699.855469 C 76.535156 701.652344 77.992188 703.105469 79.785156 703.105469 L 79.785156 709.605469 Z M 11.535156 709.867188 " style=" stroke:none;fill-rule:nonzero;fill:rgb(18.823529%,58.823529%,87.45098%);fill-opacity:1;" />
<path d="M 103.316406 461.828125 L 103.316406 548.082031 C 88.753906 553.414062 70.230469 568.296875 70.230469 600.082031 L 70.230469 700.246094 C 70.230469 705.628906 74.597656 709.996094 79.980469 709.996094 L 18.945312 709.996094 L 37.667969 567.972656 C 37.667969 567.257812 47.027344 497.902344 77.707031 475.609375 C 85.773438 470.1875 94.34375 465.574219 103.316406 461.828125 Z M 103.316406 461.828125 " style=" stroke:none;fill-rule:nonzero;fill:rgb(18.823529%,58.823529%,87.45098%);fill-opacity:1;" />
<path d="M 510.148438 709.867188 L 510.148438 703.367188 C 511.941406 703.367188 513.398438 701.910156 513.398438 700.117188 L 513.398438 599.953125 C 513.398438 568.167969 493.246094 557.378906 484.601562 554.453125 L 480.3125 552.894531 L 480.3125 452.144531 L 489.476562 456.304688 C 498.675781 460.105469 507.457031 464.859375 515.671875 470.472656 C 546.222656 492.636719 556.492188 554.972656 558.246094 566.996094 L 577.746094 709.605469 Z M 510.148438 709.867188 " style=" stroke:none;fill-rule:nonzero;fill:rgb(18.823529%,58.823529%,87.45098%);fill-opacity:1;" />
<path d="M 519.898438 700.117188 L 519.898438 599.953125 C 519.898438 568.296875 501.371094 553.414062 486.8125 547.953125 L 486.8125 462.21875 C 495.527344 465.9375 503.847656 470.53125 511.640625 475.933594 C 542.324219 498.230469 551.550781 567.582031 551.679688 568.363281 L 570.402344 709.867188 L 510.148438 709.867188 C 515.527344 709.867188 519.898438 705.5 519.898438 700.117188 Z M 519.898438 700.117188 " style=" stroke:none;fill-rule:nonzero;fill:rgb(18.823529%,58.823529%,87.45098%);fill-opacity:1;" />
<path d="M 570.984375 565.828125 C 570.597656 562.644531 560.585938 487.4375 523.148438 460.140625 C 510.632812 451.765625 497.226562 444.8125 483.171875 439.40625 C 482.351562 438.753906 481.429688 438.253906 480.441406 437.910156 L 472.316406 435.050781 C 459.835938 430.242188 446.769531 425.753906 434.160156 421.660156 L 427.011719 419.125 C 426.265625 418.8125 425.476562 418.597656 424.671875 418.476562 C 403.675781 411.976562 385.28125 406.90625 375.46875 404.371094 L 375.46875 382.53125 C 405.261719 361.28125 422.957031 326.957031 422.980469 290.363281 L 422.980469 273.136719 C 426.316406 274.445312 429.867188 275.125 433.445312 275.152344 C 449.980469 275.113281 463.371094 261.722656 463.410156 245.1875 L 463.410156 218.214844 C 463.371094 208.816406 458.945312 199.96875 451.449219 194.292969 C 454.167969 177.796875 455.402344 161.09375 455.15625 144.375 C 455.15625 33.875 378.261719 7.875 332.4375 2.027344 C 319.898438 0.609375 307.289062 -0.0664062 294.671875 0.0117188 C 280.152344 -0.113281 265.636719 0.84375 251.25 2.871094 C 207.832031 9.761719 134.96875 37.191406 134.96875 144.375 C 134.722656 161.09375 135.957031 177.796875 138.671875 194.292969 C 131.132812 199.941406 126.679688 208.796875 126.648438 218.214844 L 126.648438 245.1875 C 126.496094 261.59375 139.671875 275.015625 156.078125 275.164062 C 159.863281 275.199219 163.617188 274.507812 167.140625 273.136719 L 167.140625 290.363281 C 167.15625 326.566406 184.476562 360.578125 213.746094 381.882812 L 213.746094 404.566406 C 178.359375 413.699219 143.527344 424.851562 109.421875 437.976562 C 94.34375 443.636719 79.953125 450.988281 66.523438 459.878906 C 29.082031 487.179688 19.074219 562.382812 18.683594 565.503906 L 0.09375 709.609375 L 19.269531 709.609375 L 37.664062 567.972656 C 37.664062 567.257812 47.023438 497.90625 77.703125 475.609375 C 85.757812 470.078125 94.335938 465.351562 103.3125 461.503906 L 103.3125 548.085938 C 88.753906 553.414062 70.230469 568.300781 70.230469 600.082031 L 70.230469 700.246094 C 70.230469 705.628906 74.597656 709.996094 79.980469 709.996094 L 510.144531 709.996094 C 515.527344 709.996094 519.894531 705.628906 519.894531 700.246094 L 519.894531 599.953125 C 519.894531 568.296875 501.371094 553.414062 486.808594 547.953125 L 486.808594 462.21875 C 495.527344 465.9375 503.847656 470.53125 511.640625 475.933594 C 542.320312 498.230469 551.550781 567.582031 551.679688 568.363281 L 570.398438 709.867188 L 589.898438 709.867188 Z M 443.78125 245.1875 C 443.78125 250.964844 439.09375 255.652344 433.316406 255.652344 C 427.539062 255.652344 422.851562 250.964844 422.851562 245.1875 L 422.851562 242.519531 C 432.308594 237.386719 439.699219 229.144531 443.78125 219.1875 Z M 254.4375 21.980469 C 267.769531 20.152344 281.21875 19.328125 294.675781 19.507812 C 306.378906 19.449219 318.074219 20.0625 329.707031 21.328125 C 377.875 27.308594 435.332031 53.4375 435.332031 144.371094 C 435.507812 157.773438 434.785156 171.171875 433.1875 184.476562 C 297.339844 127.992188 191.84375 166.730469 156.875 183.4375 C 155.261719 170.503906 154.527344 157.46875 154.664062 144.4375 C 154.664062 56.363281 208.941406 29.324219 254.4375 21.980469 Z M 167.339844 245.1875 C 166.886719 250.984375 161.816406 255.3125 156.015625 254.859375 C 150.855469 254.449219 146.753906 250.351562 146.34375 245.1875 L 146.34375 219.1875 C 150.453125 229.132812 157.867188 237.351562 167.339844 242.457031 Z M 160.839844 203 C 186.839844 190 293.375 145.933594 428.898438 203.652344 C 423.503906 220.679688 415.898438 224.972656 410.179688 226.660156 C 398.671875 229.976562 380.082031 225.359375 359.671875 219.835938 C 338.613281 213.160156 316.753906 209.332031 294.675781 208.460938 C 272.59375 209.320312 250.734375 213.148438 229.675781 219.835938 C 209.523438 225.359375 190.675781 230.039062 179.234375 226.660156 C 174.164062 224.96875 166.363281 220.550781 160.96875 203 C 160.96875 203 160.839844 203 160.839844 203 Z M 186.839844 290.359375 L 186.839844 247.203125 C 187.75 247.203125 188.59375 247.203125 189.570312 247.203125 C 205.039062 246.214844 220.328125 243.289062 235.070312 238.492188 C 254.394531 232.269531 274.457031 228.664062 294.738281 227.765625 C 315.039062 228.664062 335.128906 232.269531 354.472656 238.492188 C 369.214844 243.292969 384.503906 246.21875 399.972656 247.203125 C 400.949219 247.203125 401.792969 247.203125 402.703125 247.203125 L 402.703125 290.359375 C 402.671875 342.003906 361.003906 383.960938 309.363281 384.347656 L 280.828125 384.347656 C 228.933594 384.3125 186.871094 342.25 186.839844 290.359375 Z M 355.839844 393.773438 L 355.839844 408.726562 L 295.0625 486.722656 L 233.445312 408.726562 L 233.445312 393.386719 C 248.289062 400.273438 264.460938 403.851562 280.828125 403.851562 L 309.363281 403.851562 C 325.398438 403.851562 341.246094 400.410156 355.839844 393.773438 Z M 176.308594 435.570312 C 195.289062 429.785156 211.605469 425.363281 219.988281 423.15625 L 287.460938 508.371094 C 289.285156 510.710938 292.09375 512.082031 295.0625 512.074219 C 298.039062 512.054688 300.847656 510.664062 302.667969 508.304688 L 369.292969 423.15625 C 377.808594 425.363281 394.449219 429.65625 413.816406 435.828125 L 413.816406 549.382812 L 176.308594 549.382812 C 176.308594 549.382812 176.308594 435.570312 176.308594 435.570312 Z M 500.398438 599.953125 L 500.398438 690.367188 L 89.730469 690.367188 L 89.730469 599.953125 C 89.730469 569.921875 111.894531 565.632812 114.367188 565.308594 C 119.195312 564.632812 122.796875 560.503906 122.816406 555.625 L 122.816406 453.703125 C 133.800781 449.480469 145.4375 445.382812 156.8125 441.679688 L 156.8125 559.132812 C 156.8125 564.515625 161.179688 568.882812 166.5625 568.882812 L 423.632812 568.882812 C 429.015625 568.882812 433.382812 564.515625 433.382812 559.132812 L 433.382812 442.132812 L 467.3125 454.03125 L 467.3125 555.625 C 467.332031 560.523438 470.972656 564.660156 475.828125 565.308594 C 476.671875 565.4375 500.398438 568.949219 500.398438 599.953125 Z M 500.398438 599.953125 " style=" stroke:none;fill-rule:nonzero;fill:rgb(0%,0%,0%);fill-opacity:1;" />
<path d="M 113.066406 587.539062 L 166.558594 587.539062 L 166.558594 605.285156 L 113.066406 605.285156 Z M 113.066406 587.539062 " style=" stroke:none;fill-rule:nonzero;fill:rgb(0%,0%,0%);fill-opacity:1;" />
<path d="M 423.632812 587.539062 L 477.0625 587.539062 L 477.0625 605.285156 L 423.632812 605.285156 Z M 423.632812 587.539062 " style=" stroke:none;fill-rule:nonzero;fill:rgb(0%,0%,0%);fill-opacity:1;" />
</g>
</svg>